<?xml version="1.0" encoding="UTF-8"?>
<svg version="1.1" xmlns="http://www.w3.org/2000/svg" width="185" height="136">
<path d="M0 0 C61.05 0 122.1 0 185 0 C185 44.88 185 89.76 185 136 C123.95 136 62.9 136 0 136 C0 91.12 0 46.24 0 0 Z " fill="#FDFEFD" transform="translate(0,0)"/>
<path d="M0 0 C4.90677664 0.45315109 7.18260347 1.57246112 10.6875 5 C14.1382503 8.26533685 17.61586766 11.38967301 21.3125 14.375 C25.49045939 17.75405781 29.60107644 21.19927688 33.6875 24.6875 C38.33248353 28.64517369 43.05992172 32.41602164 48 36 C51.74886556 34.44346929 54.08955008 32.12681671 56.9140625 29.24609375 C57.83960938 28.30958984 58.76515625 27.37308594 59.71875 26.40820312 C60.68785102 25.41831227 61.65659713 24.42807386 62.625 23.4375 C64.53065371 21.49549092 66.44035631 19.55765812 68.3515625 17.62109375 C69.19541504 16.7592749 70.03926758 15.89745605 70.90869141 15.00952148 C73.50077556 12.51880882 74.55087002 12.0718608 78.125 11.5 C87.00465505 12.64576194 94.28334158 23.16594215 100.3359375 29.2734375 C101.30590707 30.24782296 102.2761784 31.22190811 103.24673462 32.19570923 C106.29234839 35.25263564 109.33395029 38.31353411 112.375 41.375 C115.92275075 44.94638945 119.47214711 48.51611225 123.02574539 52.08168411 C124.44258603 53.50500213 125.85636975 54.93136105 127.27011108 56.35775757 C128.12505157 57.21600128 128.97999207 58.074245 129.86083984 58.95849609 C130.61392426 59.71681732 131.36700867 60.47513855 132.14291382 61.25643921 C133.89196667 63.06522266 133.89196667 63.06522266 136 64 C136.07347656 62.26363281 136.07347656 62.26363281 136.1484375 60.4921875 C136.22351478 58.9531033 136.29906043 57.4140419 136.375 55.875 C136.4059375 55.11445312 136.436875 54.35390625 136.46875 53.5703125 C136.74032683 48.31982708 137.38041611 43.64247897 140.1875 39.0625 C142 38 142 38 145.5 38.0625 C149 39 149 39 150.65014648 40.62133789 C152.42791007 43.75404736 152.69823376 46.4193313 153.09765625 49.99609375 C153.21735023 51.0019326 153.21735023 51.0019326 153.33946228 52.02809143 C153.59220402 54.16339512 153.82854092 56.3000633 154.0625 58.4375 C154.30191913 60.5710548 154.54501894 62.7039995 154.79624939 64.8361969 C155.02366482 66.77321512 155.23884428 68.7116583 155.45336914 70.65014648 C156.18741423 75.14850854 157.47983329 78.21974993 160 82 C160.23046875 84.15625 160.23046875 84.15625 160.1875 86.5 C160.17783203 87.66015625 160.17783203 87.66015625 160.16796875 88.84375 C159.89138249 92.39434568 159.27136718 93.76342348 156.5625 96.125 C148.68074758 101.89213592 137.23395513 98.61937445 128.06811523 97.45581055 C125.93920742 97.18771502 123.8087629 96.93615524 121.67773438 96.68554688 C114.49363073 95.80966136 107.6891265 94.85853953 101 92 C98.83448884 88.75173326 98.44843047 87.76905843 99 84 C100.67713441 81.20477598 102.25291191 80.21856957 105.36328125 79.30859375 C111.60622093 78.04587752 117.6523709 77.79853754 124 78 C118.99070875 72.10855487 113.70762448 66.57335486 108.22265625 61.125 C107.41130722 60.31506592 106.59995819 59.50513184 105.76402283 58.6706543 C103.19920861 56.11138985 100.63092052 53.5556447 98.0625 51 C96.31161717 49.25413867 94.56096387 47.50804713 92.81054688 45.76171875 C88.54301384 41.50514802 84.27263134 37.25145284 80 33 C76.29978502 34.72981988 73.95893927 36.82372896 71.0859375 39.75390625 C70.16039063 40.69041016 69.23484375 41.62691406 68.28125 42.59179688 C67.31214898 43.58168773 66.34340287 44.57192614 65.375 45.5625 C63.46934629 47.50450908 61.55964369 49.44234188 59.6484375 51.37890625 C58.38265869 52.67163452 58.38265869 52.67163452 57.09130859 53.99047852 C54.39095029 56.58523093 53.45809308 56.94814041 49.6875 57.375 C43.07830063 56.70287803 39.06879586 49.91256244 34.875 45.0625 C34.02349365 44.07950928 34.02349365 44.07950928 33.15478516 43.07666016 C28.96904983 38.20830281 24.96727989 33.22109692 21.03588867 28.14648438 C17.84432181 24.03796141 14.55584079 20.02727603 11.1875 16.0625 C10.72867432 15.52173828 10.26984863 14.98097656 9.79711914 14.42382812 C7.88013046 12.17373946 5.94750267 9.94132055 3.9765625 7.73828125 C0 3.28565141 0 3.28565141 0 0 Z " fill="#289128" transform="translate(8,16)"/>
</svg>
