<svg id="Layer_1" data-name="Layer 1" xmlns="http://www.w3.org/2000/svg" viewBox="0 0 964.47 530.89"><defs><style>.cls-1{fill:#fff;}</style></defs><path class="cls-1" d="M725.58,142.92l-.65-.14v.36h1.42C726.09,143.08,725.84,143,725.58,142.92Z"/><rect class="cls-1" x="757.84" y="321.45" width="7.05" height="7.05"/><path class="cls-1" d="M700.3,285.49v6.68h7.05v-7.05H702Z"/><path class="cls-1" d="M736.56,154.09h7.05V150c-2.3-1-4.61-1.89-7.05-2.69Z"/><rect class="cls-1" x="715.78" y="163.73" width="7.04" height="7.05"/><rect class="cls-1" x="681.82" y="168.06" width="7.05" height="7.05"/><path class="cls-1" d="M725.75,237.38h.42v-7H724A45.37,45.37,0,0,1,725.75,237.38Z"/><rect class="cls-1" x="715.09" y="154.01" width="7.04" height="7.05"/><path class="cls-1" d="M726.29,240.07v-.55h-.06C726.26,239.7,726.27,239.89,726.29,240.07Z"/><rect class="cls-1" x="714.39" y="144.3" width="7.04" height="7.05"/><rect class="cls-1" x="717.07" y="183.06" width="7.04" height="7.05"/><rect class="cls-1" x="757.84" y="239.74" width="7.06" height="7.05"/><rect class="cls-1" x="757.84" y="257.9" width="7.05" height="7.05"/><rect class="cls-1" x="757.84" y="303.29" width="7.05" height="7.05"/><rect class="cls-1" x="786.61" y="303.29" width="7.05" height="7.05"/><rect class="cls-1" x="757.84" y="276.06" width="7.05" height="7.05"/><rect class="cls-1" x="718.5" y="211.61" width="7.04" height="7.05"/><rect class="cls-1" x="689.9" y="139.44" width="7.05" height="7.05"/><rect class="cls-1" x="696.16" y="190.56" width="7.05" height="7.05"/><rect class="cls-1" x="695.07" y="180.48" width="7.05" height="7.05"/><rect class="cls-1" x="692.57" y="160.04" width="7.05" height="7.05"/><rect class="cls-1" x="691.23" y="149.74" width="7.05" height="7.05"/><rect class="cls-1" x="693.86" y="170.29" width="7.05" height="7.05"/><rect class="cls-1" x="678.31" y="146.69" width="7.05" height="7.05"/><rect class="cls-1" x="680.1" y="157.41" width="7.05" height="7.05"/><path class="cls-1" d="M705,211.14v-.82h-2.33C703.46,210.59,704.24,210.86,705,211.14Z"/><rect class="cls-1" x="697.12" y="200.51" width="7.05" height="7.05"/><rect class="cls-1" x="676.53" y="135.98" width="7.05" height="7.05"/><rect class="cls-1" x="703.46" y="152.15" width="7.04" height="7.05"/><rect class="cls-1" x="702.49" y="142.18" width="7.04" height="7.05"/><path class="cls-1" d="M718.82,221.11a29,29,0,0,1,4,6.92h3V221h-7Z"/><rect class="cls-1" x="717.62" y="192.65" width="7.04" height="7.05"/><rect class="cls-1" x="757.79" y="212.47" width="7.05" height="7.05"/><rect class="cls-1" x="718.1" y="202.16" width="7.04" height="7.05"/><rect class="cls-1" x="706.26" y="181.94" width="7.04" height="7.05"/><rect class="cls-1" x="704.44" y="162.12" width="7.04" height="7.05"/><rect class="cls-1" x="707.05" y="191.75" width="7.04" height="7.05"/><rect class="cls-1" x="707.74" y="201.46" width="7.04" height="7.05"/><path class="cls-1" d="M708.31,212.94a28.49,28.49,0,0,1,5.24,3,22.49,22.49,0,0,1,1.81,1.58v-6.48h-7.05Z"/><rect class="cls-1" x="705.38" y="172.06" width="7.04" height="7.06"/><rect class="cls-1" x="716.45" y="173.42" width="7.04" height="7.05"/><polygon class="cls-1" points="738.63 355.37 738.63 355.73 738.9 355.73 738.63 355.37"/><rect class="cls-1" x="729.08" y="312.37" width="7.04" height="7.05"/><rect class="cls-1" x="729.08" y="330.52" width="7.04" height="7.05"/><rect class="cls-1" x="737.28" y="457.64" width="7.05" height="7.05"/><rect class="cls-1" x="729.08" y="321.45" width="7.04" height="7.05"/><rect class="cls-1" x="738.09" y="412.24" width="7.05" height="7.05"/><rect class="cls-1" x="737.94" y="421.32" width="7.05" height="7.05"/><rect class="cls-1" x="737.6" y="439.48" width="7.05" height="7.05"/><rect class="cls-1" x="737.77" y="430.4" width="7.05" height="7.04"/><rect class="cls-1" x="737.43" y="448.56" width="7.05" height="7.05"/><rect class="cls-1" x="728.86" y="230.46" width="7.04" height="7.05"/><rect class="cls-1" x="728.96" y="239.63" width="7.04" height="7.05"/><rect class="cls-1" x="729.02" y="248.77" width="7.04" height="7.05"/><rect class="cls-1" x="729.08" y="303.29" width="7.04" height="7.05"/><rect class="cls-1" x="728.71" y="221.25" width="7.04" height="7.05"/><rect class="cls-1" x="738.23" y="403.15" width="7.05" height="7.05"/><rect class="cls-1" x="729.06" y="257.88" width="7.04" height="7.05"/><rect class="cls-1" x="729.08" y="294.21" width="7.04" height="7.05"/><rect class="cls-1" x="729.08" y="276.06" width="7.04" height="7.05"/><rect class="cls-1" x="729.08" y="266.97" width="7.04" height="7.05"/><polygon class="cls-1" points="748.2 375.91 748.2 382.96 755.25 382.96 755.25 377.36 754.16 375.91 748.2 375.91"/><rect class="cls-1" x="748.04" y="403.15" width="7.05" height="7.05"/><rect class="cls-1" x="748.11" y="394.07" width="7.05" height="7.05"/><rect class="cls-1" x="747.95" y="412.23" width="7.05" height="7.05"/><rect class="cls-1" x="757.69" y="194.22" width="7.05" height="7.05"/><rect class="cls-1" x="757.75" y="203.35" width="7.05" height="7.05"/><rect class="cls-1" x="747.37" y="466.71" width="7.05" height="7.04"/><rect class="cls-1" x="747.76" y="430.39" width="7.05" height="7.05"/><rect class="cls-1" x="747.66" y="439.47" width="7.05" height="7.05"/><rect class="cls-1" x="747.46" y="457.63" width="7.05" height="7.05"/><rect class="cls-1" x="747.56" y="448.55" width="7.05" height="7.05"/><rect class="cls-1" x="747.86" y="421.31" width="7.05" height="7.05"/><rect class="cls-1" x="670.27" y="348.71" width="7.05" height="7.04"/><rect class="cls-1" x="690.71" y="294.2" width="7.05" height="7.05"/><path class="cls-1" d="M690.69,292.15h7v-6.22c-2.13.36-4.48.7-7,1Z"/><rect class="cls-1" x="690.71" y="303.29" width="7.05" height="7.05"/><rect class="cls-1" x="690.62" y="321.45" width="7.05" height="7.05"/><rect class="cls-1" x="690.68" y="312.37" width="7.05" height="7.05"/><rect class="cls-1" x="697.44" y="403.21" width="7.05" height="7.05"/><rect class="cls-1" x="699.05" y="375.94" width="7.05" height="7.06"/><rect class="cls-1" x="690.51" y="330.53" width="7.05" height="7.05"/><rect class="cls-1" x="699.42" y="366.86" width="7.05" height="7.05"/><rect class="cls-1" x="698.05" y="394.12" width="7.05" height="7.05"/><rect class="cls-1" x="680.95" y="321.45" width="7.04" height="7.05"/><rect class="cls-1" x="699.71" y="357.77" width="7.05" height="7.05"/><path class="cls-1" d="M681.07,292.12h7v-4.94q-3.29.33-7,.57Z"/><rect class="cls-1" x="681.1" y="294.19" width="7.04" height="7.05"/><rect class="cls-1" x="681.1" y="303.29" width="7.04" height="7.05"/><rect class="cls-1" x="681.05" y="312.37" width="7.04" height="7.05"/><rect class="cls-1" x="690.35" y="339.61" width="7.05" height="7.05"/><rect class="cls-1" x="687.49" y="394.14" width="7.05" height="7.05"/><rect class="cls-1" x="689.8" y="357.78" width="7.05" height="7.05"/><rect class="cls-1" x="690.12" y="348.69" width="7.05" height="7.05"/><rect class="cls-1" x="688.86" y="375.95" width="7.05" height="7.05"/><rect class="cls-1" x="688.23" y="385.05" width="7.05" height="7.05"/><rect class="cls-1" x="689.38" y="366.87" width="7.05" height="7.05"/><rect class="cls-1" x="698.59" y="385.03" width="7.06" height="7.05"/><rect class="cls-1" x="709.69" y="348.68" width="7.04" height="7.05"/><rect class="cls-1" x="709.79" y="339.6" width="7.04" height="7.05"/><rect class="cls-1" x="709.54" y="357.76" width="7.04" height="7.05"/><rect class="cls-1" x="709.09" y="375.93" width="7.04" height="7.05"/><rect class="cls-1" x="709.85" y="330.52" width="7.04" height="7.05"/><rect class="cls-1" x="709.91" y="294.21" width="7.04" height="7.05"/><rect class="cls-1" x="699.94" y="348.69" width="7.05" height="7.05"/><rect class="cls-1" x="709.9" y="285.13" width="7.04" height="7.05"/><rect class="cls-1" x="709.91" y="303.29" width="7.04" height="7.05"/><rect class="cls-1" x="709.9" y="312.37" width="7.04" height="7.05"/><rect class="cls-1" x="709.88" y="321.45" width="7.04" height="7.05"/><rect class="cls-1" x="700.26" y="321.45" width="7.05" height="7.05"/><rect class="cls-1" x="700.3" y="312.37" width="7.05" height="7.05"/><rect class="cls-1" x="700.31" y="303.29" width="7.05" height="7.05"/><rect class="cls-1" x="700.2" y="330.53" width="7.05" height="7.05"/><rect class="cls-1" x="700.09" y="339.61" width="7.05" height="7.05"/><rect class="cls-1" x="706.94" y="421.37" width="7.04" height="7.05"/><rect class="cls-1" x="707.95" y="403.19" width="7.04" height="7.05"/><rect class="cls-1" x="708.39" y="394.1" width="7.04" height="7.05"/><rect class="cls-1" x="707.46" y="412.28" width="7.04" height="7.05"/><rect class="cls-1" x="708.77" y="385.01" width="7.04" height="7.05"/><rect class="cls-1" x="700.31" y="294.21" width="7.05" height="7.05"/><rect class="cls-1" x="630.8" y="120.46" width="7.05" height="7.05"/><rect class="cls-1" x="661.27" y="184.95" width="7.05" height="7.05"/><path class="cls-1" d="M663.18,200c2.46.09,4.83.2,7.05.34v-4.61h-7.05Z"/><rect class="cls-1" x="658.8" y="173.61" width="7.04" height="7.05"/><rect class="cls-1" x="683.44" y="178.62" width="7.05" height="7.05"/><rect class="cls-1" x="656.07" y="162.04" width="7.05" height="7.05"/><rect class="cls-1" x="653.15" y="150.29" width="7.05" height="7.05"/><rect class="cls-1" x="648.84" y="182.36" width="7.04" height="7.05"/><rect class="cls-1" x="645.73" y="170.43" width="7.04" height="7.05"/><rect class="cls-1" x="642.29" y="158.2" width="7.05" height="7.05"/><rect class="cls-1" x="634.71" y="133.12" width="7.05" height="7.05"/><rect class="cls-1" x="638.58" y="145.74" width="7.04" height="7.05"/><path class="cls-1" d="M674.86,202.5c2.5.2,4.86.43,7,.71v-5.52h-7Z"/><rect class="cls-1" x="666.98" y="154.17" width="7.04" height="7.05"/><rect class="cls-1" x="664.63" y="142.94" width="7.04" height="7.05"/><rect class="cls-1" x="650.12" y="138.44" width="7.05" height="7.05"/><path class="cls-1" d="M686.21,205.18c2.4.35,4.61.75,6.64,1.18h.41v-7.05h-7Z"/><rect class="cls-1" x="684.91" y="189.04" width="7.05" height="7.05"/><rect class="cls-1" x="662.28" y="131.72" width="7.04" height="7.05"/><rect class="cls-1" x="669.24" y="165.32" width="7.04" height="7.05"/><rect class="cls-1" x="647.06" y="126.57" width="7.05" height="7.05"/><path class="cls-1" d="M651.18,197.68h.66c2.22,0,4.34,0,6.39.08v-4.19h-7.05Z"/><rect class="cls-1" x="671.36" y="176.34" width="7.04" height="7.05"/><rect class="cls-1" x="673.29" y="187.18" width="7.04" height="7.05"/><rect class="cls-1" x="680.8" y="330.53" width="7.04" height="7.05"/><path class="cls-1" d="M671.43,292.07h7v-4.21c-2.21.11-4.58.2-7,.27Z"/><rect class="cls-1" x="671.48" y="294.17" width="7.05" height="7.05"/><rect class="cls-1" x="671.47" y="303.28" width="7.05" height="7.05"/><rect class="cls-1" x="671.4" y="312.37" width="7.05" height="7.05"/><rect class="cls-1" x="671.04" y="330.53" width="7.05" height="7.05"/><rect class="cls-1" x="671.26" y="321.45" width="7.04" height="7.05"/><rect class="cls-1" x="680.24" y="348.7" width="7.04" height="7.05"/><rect class="cls-1" x="680.56" y="339.62" width="7.04" height="7.05"/><rect class="cls-1" x="679.22" y="366.88" width="7.04" height="7.05"/><rect class="cls-1" x="679.79" y="357.79" width="7.04" height="7.05"/><rect class="cls-1" x="678.52" y="375.97" width="7.04" height="7.05"/><rect class="cls-1" x="660.8" y="339.63" width="7.05" height="7.05"/><rect class="cls-1" x="661.72" y="312.37" width="7.04" height="7.05"/><rect class="cls-1" x="661.82" y="303.26" width="7.05" height="7.05"/><rect class="cls-1" x="670.71" y="339.62" width="7.05" height="7.05"/><rect class="cls-1" x="661.23" y="330.54" width="7.04" height="7.05"/><rect class="cls-1" x="660.22" y="348.72" width="7.04" height="7.04"/><rect class="cls-1" x="661.53" y="321.45" width="7.05" height="7.05"/><rect class="cls-1" x="661.83" y="294.13" width="7.04" height="7.05"/><rect class="cls-1" x="669.68" y="357.8" width="7.05" height="7.05"/><rect class="cls-1" x="728.25" y="202.67" width="7.04" height="7.05"/><rect class="cls-1" x="668.93" y="366.89" width="7.05" height="7.05"/><path class="cls-1" d="M661.76,288.2V292h7v-3.88q-3.06.08-6.38.07Z"/><rect class="cls-1" x="727.56" y="183.89" width="7.04" height="7.05"/><rect class="cls-1" x="796.21" y="248.82" width="7.05" height="7.05"/><rect class="cls-1" x="796.21" y="321.44" width="7.05" height="7.05"/><rect class="cls-1" x="825.32" y="248.82" width="7.05" height="7.05"/><rect class="cls-1" x="815.38" y="230.81" width="7.05" height="7.05"/><rect class="cls-1" x="786.61" y="221.59" width="7.05" height="7.05"/><rect class="cls-1" x="786.61" y="212.51" width="7.05" height="7.05"/><rect class="cls-1" x="786.61" y="276.06" width="7.05" height="7.05"/><rect class="cls-1" x="786.61" y="257.9" width="7.05" height="7.05"/><rect class="cls-1" x="795.61" y="203.43" width="7.05" height="7.05"/><rect class="cls-1" x="767.44" y="312.37" width="7.04" height="7.05"/><rect class="cls-1" x="767.44" y="339.6" width="7.04" height="7.05"/><rect class="cls-1" x="776.91" y="493.93" width="7.05" height="7.05"/><rect class="cls-1" x="776.91" y="484.85" width="7.04" height="7.05"/><rect class="cls-1" x="776.92" y="475.77" width="7.05" height="7.05"/><rect class="cls-1" x="776.97" y="439.46" width="7.05" height="7.05"/><rect class="cls-1" x="776.96" y="448.54" width="7.05" height="7.05"/><rect class="cls-1" x="776.94" y="457.61" width="7.05" height="7.05"/><rect class="cls-1" x="776.93" y="466.69" width="7.04" height="7.04"/><rect class="cls-1" x="776.99" y="430.38" width="7.04" height="7.05"/><rect class="cls-1" x="777.02" y="212.51" width="7.04" height="7.05"/><rect class="cls-1" x="777.02" y="230.67" width="7.05" height="7.05"/><rect class="cls-1" x="776.99" y="185.26" width="7.05" height="7.05"/><rect class="cls-1" x="777.02" y="248.82" width="7.05" height="7.05"/><rect class="cls-1" x="777.02" y="276.06" width="7.05" height="7.05"/><rect class="cls-1" x="815.38" y="466.69" width="7.04" height="7.04"/><rect class="cls-1" x="815.38" y="493.92" width="7.04" height="7.05"/><rect class="cls-1" x="805.79" y="484.84" width="7.05" height="7.05"/><rect class="cls-1" x="815.38" y="475.77" width="7.04" height="7.05"/><rect class="cls-1" x="815.38" y="484.84" width="7.04" height="7.05"/><rect class="cls-1" x="805.79" y="457.61" width="7.05" height="7.05"/><rect class="cls-1" x="805.79" y="493.92" width="7.05" height="7.05"/><polygon class="cls-1" points="649.14 364.88 654.62 364.88 654.62 358.84 656.19 360.95 656.19 357.83 649.14 357.83 649.14 364.88"/><rect class="cls-1" x="824.96" y="493.92" width="7.05" height="7.05"/><rect class="cls-1" x="824.96" y="484.84" width="7.05" height="7.05"/><rect class="cls-1" x="834.55" y="493.92" width="7.05" height="7.05"/><rect class="cls-1" x="767.17" y="484.85" width="7.05" height="7.05"/><rect class="cls-1" x="767.43" y="221.59" width="7.05" height="7.05"/><rect class="cls-1" x="767.44" y="230.67" width="7.04" height="7.05"/><rect class="cls-1" x="767.42" y="212.5" width="7.05" height="7.05"/><rect class="cls-1" x="727.93" y="193.3" width="7.04" height="7.05"/><rect class="cls-1" x="767.3" y="176.08" width="7.05" height="7.05"/><rect class="cls-1" x="767.44" y="266.98" width="7.04" height="7.05"/><rect class="cls-1" x="805.79" y="266.98" width="7.04" height="7.05"/><rect class="cls-1" x="767.44" y="239.74" width="7.04" height="7.05"/><rect class="cls-1" x="786.39" y="239.74" width="7.04" height="7.05"/><rect class="cls-1" x="767.44" y="257.9" width="7.04" height="7.05"/><rect class="cls-1" x="767.19" y="475.77" width="7.05" height="7.05"/><rect class="cls-1" x="767.24" y="457.62" width="7.05" height="7.05"/><rect class="cls-1" x="767.21" y="466.69" width="7.05" height="7.04"/><rect class="cls-1" x="767.44" y="285.13" width="7.04" height="7.05"/><rect class="cls-1" x="777.03" y="294.21" width="7.04" height="7.05"/><rect class="cls-1" x="767.34" y="185.2" width="7.05" height="7.05"/><rect class="cls-1" x="767.17" y="493.93" width="7.04" height="7.05"/><rect class="cls-1" x="767.3" y="439.46" width="7.05" height="7.05"/><rect class="cls-1" x="767.4" y="403.15" width="7.05" height="7.05"/><rect class="cls-1" x="767.38" y="412.22" width="7.05" height="7.05"/><rect class="cls-1" x="767.33" y="430.38" width="7.04" height="7.04"/><rect class="cls-1" x="767.38" y="194.31" width="7.05" height="7.05"/><rect class="cls-1" x="748.26" y="294.21" width="7.05" height="7.05"/><rect class="cls-1" x="748.26" y="276.06" width="7.05" height="7.05"/><rect class="cls-1" x="748.26" y="266.98" width="7.05" height="7.05"/><rect class="cls-1" x="748.25" y="257.9" width="7.05" height="7.05"/><rect class="cls-1" x="737.5" y="175.13" width="7.05" height="7.05"/><rect class="cls-1" x="736.88" y="156.41" width="7.05" height="7.05"/><rect class="cls-1" x="737.2" y="165.78" width="7.05" height="7.05"/><rect class="cls-1" x="748.26" y="312.37" width="7.05" height="7.05"/><rect class="cls-1" x="748.26" y="321.45" width="7.05" height="7.05"/><rect class="cls-1" x="747.61" y="175.61" width="7.05" height="7.05"/><rect class="cls-1" x="747.22" y="157.1" width="7.05" height="7.05"/><rect class="cls-1" x="747.78" y="184.84" width="7.05" height="7.05"/><rect class="cls-1" x="748.03" y="203.23" width="7.05" height="7.05"/><rect class="cls-1" x="748.18" y="221.52" width="7.05" height="7.05"/><rect class="cls-1" x="748.22" y="230.63" width="7.05" height="7.05"/><rect class="cls-1" x="747.92" y="194.05" width="7.05" height="7.05"/><rect class="cls-1" x="748.25" y="248.82" width="7.05" height="7.05"/><rect class="cls-1" x="738.67" y="294.21" width="7.05" height="7.05"/><rect class="cls-1" x="738.67" y="312.37" width="7.05" height="7.05"/><rect class="cls-1" x="738.67" y="330.52" width="7.05" height="7.05"/><rect class="cls-1" x="727.14" y="174.42" width="7.04" height="7.05"/><rect class="cls-1" x="725.72" y="145.89" width="7.04" height="7.05"/><path class="cls-1" d="M709.89,282.88v.21h7.05v-3.92a7,7,0,0,1-.59.49A27.46,27.46,0,0,1,709.89,282.88Z"/><rect class="cls-1" x="726.68" y="164.92" width="7.04" height="7.05"/><rect class="cls-1" x="726.2" y="155.41" width="7.04" height="7.05"/><rect class="cls-1" x="738.67" y="285.13" width="7.05" height="7.05"/><rect class="cls-1" x="748.12" y="285.13" width="7.05" height="7.05"/><rect class="cls-1" x="757.62" y="285.13" width="7.05" height="7.05"/><rect class="cls-1" x="815.38" y="294.21" width="7.05" height="7.05"/><rect class="cls-1" x="825.32" y="285.13" width="7.05" height="7.05"/><rect class="cls-1" x="738.48" y="221.42" width="7.05" height="7.05"/><rect class="cls-1" x="738.36" y="212.24" width="7.05" height="7.05"/><rect class="cls-1" x="738.2" y="203.01" width="7.05" height="7.05"/><rect class="cls-1" x="737.77" y="184.46" width="7.05" height="7.05"/><rect class="cls-1" x="738.01" y="193.75" width="7.05" height="7.05"/><rect class="cls-1" x="738.67" y="276.06" width="7.05" height="7.05"/><rect class="cls-1" x="738.66" y="257.89" width="7.05" height="7.05"/><rect class="cls-1" x="738.65" y="248.8" width="7.05" height="7.05"/><rect class="cls-1" x="738.62" y="239.7" width="7.05" height="7.05"/><rect class="cls-1" x="796.19" y="475.77" width="7.06" height="7.05"/><rect class="cls-1" x="796.19" y="466.69" width="7.06" height="7.04"/><rect class="cls-1" x="796.19" y="484.84" width="7.06" height="7.05"/><rect class="cls-1" x="796.19" y="493.92" width="7.06" height="7.05"/><rect class="cls-1" x="796.19" y="448.54" width="7.06" height="7.05"/><rect class="cls-1" x="786.58" y="493.92" width="7.05" height="7.05"/><rect class="cls-1" x="786.58" y="484.85" width="7.05" height="7.05"/><rect class="cls-1" x="786.58" y="475.77" width="7.05" height="7.05"/><rect class="cls-1" x="786.61" y="430.38" width="7.05" height="7.05"/><rect class="cls-1" x="786.59" y="457.61" width="7.05" height="7.05"/><rect class="cls-1" x="786.59" y="448.54" width="7.05" height="7.05"/><rect class="cls-1" x="728.51" y="394.08" width="7.04" height="7.05"/><rect class="cls-1" x="727.32" y="439.5" width="7.04" height="7.05"/><rect class="cls-1" x="728.09" y="412.25" width="7.04" height="7.05"/><rect class="cls-1" x="757.78" y="394.07" width="7.05" height="7.05"/><rect class="cls-1" x="727.58" y="430.41" width="7.04" height="7.05"/><rect class="cls-1" x="727.84" y="421.34" width="7.04" height="7.05"/><rect class="cls-1" x="728.81" y="375.91" width="7.04" height="7.06"/><rect class="cls-1" x="728.68" y="385" width="7.04" height="7.05"/><rect class="cls-1" x="767.24" y="357.76" width="7.04" height="7.05"/><rect class="cls-1" x="738.67" y="357.76" width="7.04" height="7.05"/><rect class="cls-1" x="757.54" y="439.46" width="7.05" height="7.05"/><rect class="cls-1" x="757.37" y="466.7" width="7.05" height="7.04"/><rect class="cls-1" x="757.33" y="475.78" width="7.05" height="7.05"/><rect class="cls-1" x="757.3" y="484.85" width="7.05" height="7.05"/><path class="cls-1" d="M767.13,164.67v.14h.15A1,1,0,0,1,767.13,164.67Z"/><rect class="cls-1" x="757.48" y="448.55" width="7.05" height="7.05"/><rect class="cls-1" x="757.66" y="421.31" width="7.05" height="7.05"/><rect class="cls-1" x="757.42" y="457.62" width="7.05" height="7.05"/><rect class="cls-1" x="757.6" y="430.38" width="7.05" height="7.05"/><rect class="cls-1" x="582.86" y="253.3" width="4.42" height="7.05"/><rect class="cls-1" x="510.34" y="459.58" width="7.05" height="7.05"/><rect class="cls-1" x="490.29" y="478.2" width="7.05" height="7.05"/><rect class="cls-1" x="531.53" y="440.93" width="7.04" height="7.05"/><rect class="cls-1" x="564.77" y="403.85" width="7.04" height="7.05"/><rect class="cls-1" x="570.72" y="394.63" width="7.05" height="7.05"/><rect class="cls-1" x="550.03" y="422.35" width="7.05" height="7.05"/><rect class="cls-1" x="479.65" y="496.6" width="7.05" height="7.05"/><rect class="cls-1" x="523.74" y="102.09" width="7.04" height="7.05"/><rect class="cls-1" x="582.94" y="192.86" width="7.05" height="7.05"/><rect class="cls-1" x="576.8" y="178.15" width="7.05" height="7.05"/><rect class="cls-1" x="560.95" y="145.51" width="7.05" height="7.05"/><rect class="cls-1" x="569.49" y="162.4" width="7.06" height="7.05"/><rect class="cls-1" x="588.04" y="206.6" width="7.05" height="7.05"/><rect class="cls-1" x="575.79" y="385.43" width="7.04" height="7.05"/><rect class="cls-1" x="527.52" y="87.69" width="7.05" height="7.05"/><rect class="cls-1" x="501.32" y="47.71" width="7.06" height="4.91"/><rect class="cls-1" x="551.11" y="127.42" width="7.05" height="7.05"/><rect class="cls-1" x="513.97" y="66.22" width="7.06" height="7.05"/><rect class="cls-1" x="539.95" y="108.14" width="7.06" height="7.05"/><rect class="cls-1" x="593.51" y="312.28" width="7.05" height="7.05"/><rect class="cls-1" x="585.12" y="230.85" width="7.04" height="7.05"/><rect class="cls-1" x="576.99" y="205.26" width="7.05" height="7.05"/><rect class="cls-1" x="581.51" y="218.47" width="7.04" height="7.05"/><rect class="cls-1" x="590.11" y="253.58" width="7.05" height="7.05"/><rect class="cls-1" x="587.95" y="242.52" width="7.04" height="7.05"/><rect class="cls-1" x="556.69" y="159.46" width="7.05" height="7.05"/><rect class="cls-1" x="536.3" y="122.65" width="7.05" height="7.05"/><rect class="cls-1" x="547.26" y="141.76" width="7.05" height="7.05"/><rect class="cls-1" x="591.71" y="264.13" width="7.05" height="7.05"/><rect class="cls-1" x="571.44" y="191.1" width="7.04" height="7.05"/><rect class="cls-1" x="580.05" y="376.25" width="7.05" height="7.05"/><rect class="cls-1" x="564.71" y="175.87" width="7.05" height="7.05"/><rect class="cls-1" x="590.52" y="339.7" width="7.04" height="7.05"/><rect class="cls-1" x="591.88" y="330.59" width="7.05" height="7.05"/><rect class="cls-1" x="588.72" y="348.82" width="7.05" height="7.05"/><rect class="cls-1" x="592.83" y="274.27" width="7.04" height="7.05"/><rect class="cls-1" x="583.56" y="367.1" width="7.05" height="7.05"/><rect class="cls-1" x="586.43" y="357.95" width="7.05" height="7.05"/><rect class="cls-1" x="593.53" y="284.09" width="7.04" height="7.05"/><rect class="cls-1" x="592.87" y="321.45" width="7.05" height="7.05"/><rect class="cls-1" x="593.86" y="293.65" width="7.04" height="7.05"/><rect class="cls-1" x="593.85" y="303.03" width="7.04" height="7.05"/><rect class="cls-1" x="592.2" y="219.48" width="7.05" height="7.05"/><rect class="cls-1" x="556.79" y="114.78" width="7.06" height="7.05"/><rect class="cls-1" x="546.14" y="95.95" width="7.06" height="7.05"/><rect class="cls-1" x="575.12" y="149.71" width="7.06" height="7.05"/><rect class="cls-1" x="566.48" y="132.72" width="7.06" height="7.05"/><rect class="cls-1" x="534.73" y="76.44" width="7.06" height="7.05"/><rect class="cls-1" x="510.4" y="487.03" width="7.05" height="7.05"/><rect class="cls-1" x="595.53" y="231.6" width="7.05" height="7.05"/><rect class="cls-1" x="507.93" y="496.17" width="7.05" height="7.05"/><rect class="cls-1" x="524.29" y="59.95" width="7.06" height="4.91"/><rect class="cls-1" x="582.69" y="165.7" width="7.05" height="7.05"/><rect class="cls-1" x="611.53" y="264.71" width="7.06" height="7.05"/><rect class="cls-1" x="530.98" y="459.32" width="7.05" height="7.05"/><rect class="cls-1" x="612.45" y="274.66" width="7.06" height="7.05"/><rect class="cls-1" x="610.2" y="254.41" width="7.06" height="7.05"/><rect class="cls-1" x="613.02" y="284.33" width="7.05" height="7.05"/><rect class="cls-1" x="613.29" y="303.11" width="7.06" height="7.05"/><rect class="cls-1" x="594.72" y="194.86" width="7.06" height="7.05"/><rect class="cls-1" x="599.3" y="208.13" width="7.06" height="7.05"/><rect class="cls-1" x="589.21" y="180.74" width="7.06" height="7.05"/><rect class="cls-1" x="606.06" y="232.46" width="7.06" height="7.05"/><rect class="cls-1" x="608.41" y="243.69" width="7.06" height="7.06"/><rect class="cls-1" x="603.05" y="220.64" width="7.06" height="7.05"/><rect class="cls-1" x="522.71" y="468.59" width="7.05" height="7.04"/><rect class="cls-1" x="603.26" y="312.3" width="7.06" height="7.05"/><rect class="cls-1" x="600.53" y="339.69" width="7.05" height="7.05"/><rect class="cls-1" x="603.56" y="303.07" width="7.05" height="7.05"/><rect class="cls-1" x="602.67" y="321.46" width="7.05" height="7.05"/><rect class="cls-1" x="601.78" y="330.58" width="7.05" height="7.05"/><rect class="cls-1" x="603.57" y="293.72" width="7.05" height="7.05"/><rect class="cls-1" x="600.13" y="253.97" width="7.05" height="7.05"/><rect class="cls-1" x="598.14" y="243.07" width="7.06" height="7.05"/><rect class="cls-1" x="601.61" y="264.4" width="7.05" height="7.05"/><rect class="cls-1" x="602.63" y="274.46" width="7.05" height="7.05"/><rect class="cls-1" x="603.27" y="284.2" width="7.05" height="7.05"/><rect class="cls-1" x="571.14" y="413" width="7.05" height="7.05"/><rect class="cls-1" x="539.7" y="450.04" width="7.05" height="7.05"/><rect class="cls-1" x="564.25" y="422.24" width="7.05" height="7.05"/><rect class="cls-1" x="548.37" y="440.76" width="7.05" height="7.05"/><rect class="cls-1" x="577.26" y="403.77" width="7.06" height="7.05"/><rect class="cls-1" x="582.58" y="394.57" width="7.05" height="7.05"/><rect class="cls-1" x="594.2" y="367.07" width="7.06" height="7.05"/><rect class="cls-1" x="596.81" y="357.93" width="7.05" height="7.05"/><rect class="cls-1" x="591.01" y="376.22" width="7.05" height="7.06"/><rect class="cls-1" x="587.15" y="385.39" width="7.05" height="7.05"/><rect class="cls-1" x="598.9" y="348.81" width="7.05" height="7.04"/><rect class="cls-1" x="613.29" y="293.8" width="7.06" height="7.05"/><polygon class="cls-1" points="665.65 373.85 665.65 366.91 660.49 366.91 665.65 373.85"/><rect class="cls-1" x="647.86" y="366.94" width="5.48" height="7.05"/><polygon class="cls-1" points="693.65 412.56 693.65 412.32 693.48 412.32 693.65 412.56"/><rect class="cls-1" x="646.38" y="376.05" width="5.48" height="7.05"/><rect class="cls-1" x="644.61" y="385.17" width="5.48" height="7.05"/><polygon class="cls-1" points="692.03 410.29 693.71 410.29 693.71 403.24 686.79 403.24 692.03 410.29"/><polygon class="cls-1" points="684.03 399.66 684.03 394.16 679.94 394.16 684.03 399.66"/><rect class="cls-1" x="642.55" y="394.29" width="5.48" height="7.05"/><polygon class="cls-1" points="677.68 390.17 679.13 392.12 684.72 392.12 684.72 385.07 677.68 385.07 677.68 390.17"/><polygon class="cls-1" points="668.01 377.28 672.31 383.05 675.06 383.05 675.06 375.99 668.01 375.99 668.01 377.28"/><polygon class="cls-1" points="674.66 386.77 674.66 385.08 673.41 385.08 674.66 386.77"/><polygon class="cls-1" points="659.46 364.35 659.84 364.87 666.51 364.87 666.51 357.82 659.46 357.82 659.46 364.35"/><rect class="cls-1" x="640.22" y="403.43" width="5.48" height="7.05"/><rect class="cls-1" x="620.91" y="467.42" width="5.48" height="7.04"/><rect class="cls-1" x="623.29" y="458.29" width="5.48" height="7.05"/><rect class="cls-1" x="637.63" y="412.57" width="5.49" height="7.05"/><rect class="cls-1" x="634.84" y="421.71" width="5.48" height="7.05"/><rect class="cls-1" x="626.01" y="449.15" width="5.48" height="7.05"/><rect class="cls-1" x="631.91" y="430.85" width="5.48" height="7.05"/><polygon class="cls-1" points="754.41 489.86 754.41 484.87 750.7 484.87 754.41 489.86"/><polygon class="cls-1" points="763.05 500.98 764.36 500.98 764.36 493.93 757.8 493.93 763.05 500.98"/><polygon class="cls-1" points="716.76 441.73 720.36 446.57 723.8 446.57 723.8 439.52 716.76 439.52 716.76 441.73"/><polygon class="cls-1" points="727.07 454.61 727.83 455.63 734.12 455.63 734.12 448.58 727.07 448.58 727.07 454.61"/><polygon class="cls-1" points="703.5 425.45 703.5 421.39 700.48 421.39 703.5 425.45"/><polygon class="cls-1" points="712.91 437.5 713.52 437.5 713.52 430.46 707.66 430.46 712.91 437.5"/><polygon class="cls-1" points="723.84 451.21 723.84 448.6 721.9 448.6 723.84 451.21"/><polygon class="cls-1" points="747.3 480.38 749.13 482.84 754.35 482.84 754.35 475.79 747.3 475.79 747.3 480.38"/><polygon class="cls-1" points="696.76 415.96 699.28 419.36 703.81 419.36 703.81 412.31 696.76 412.31 696.76 415.96"/><polygon class="cls-1" points="737.15 467.49 741.82 473.77 744.2 473.77 744.2 466.73 737.15 466.73 737.15 467.49"/><polygon class="cls-1" points="734.01 464.1 734.01 457.66 729.22 457.66 734.01 464.1"/><polygon class="cls-1" points="744.37 476.97 744.37 475.8 743.5 475.8 744.37 476.97"/><rect class="cls-1" x="547.46" y="157.38" width="4.42" height="7.05"/><rect class="cls-1" x="584.55" y="263.94" width="4.42" height="7.05"/><rect class="cls-1" x="585.73" y="274.15" width="4.42" height="7.05"/><rect class="cls-1" x="580.57" y="242.13" width="4.42" height="7.05"/><rect class="cls-1" x="573.77" y="217.76" width="4.42" height="7.05"/><rect class="cls-1" x="577.59" y="230.32" width="4.42" height="7.05"/><rect class="cls-1" x="586.46" y="284.01" width="4.42" height="7.05"/><rect class="cls-1" x="586.44" y="312.27" width="4.42" height="7.05"/><rect class="cls-1" x="585.75" y="321.45" width="4.42" height="7.05"/><rect class="cls-1" x="586.81" y="293.6" width="4.42" height="7.05"/><rect class="cls-1" x="586.79" y="303" width="4.42" height="7.05"/><rect class="cls-1" x="569" y="204.32" width="4.42" height="7.05"/><rect class="cls-1" x="525.59" y="119.22" width="4.42" height="7.05"/><rect class="cls-1" x="478.93" y="49.3" width="4.42" height="7.05"/><rect class="cls-1" x="563.12" y="189.87" width="4.42" height="7.05"/><rect class="cls-1" x="717.14" y="430.44" width="7.04" height="7.04"/><rect class="cls-1" x="478.82" y="35.9" width="7.05" height="4.91"/><rect class="cls-1" x="493.83" y="56.57" width="7.05" height="7.05"/><rect class="cls-1" x="496.43" y="74.38" width="4.42" height="7.05"/><rect class="cls-1" x="555.99" y="174.26" width="4.42" height="7.05"/><rect class="cls-1" x="511.97" y="97.68" width="4.42" height="7.05"/><rect class="cls-1" x="509.56" y="80.04" width="7.05" height="7.05"/><rect class="cls-1" x="584.7" y="330.59" width="4.42" height="7.05"/><rect class="cls-1" x="537.38" y="139.08" width="4.42" height="7.05"/><rect class="cls-1" x="581.33" y="348.83" width="4.42" height="7.04"/><rect class="cls-1" x="454.53" y="497.02" width="4.42" height="7.05"/><rect class="cls-1" x="469.08" y="478.53" width="4.42" height="7.05"/><rect class="cls-1" x="583.24" y="339.71" width="4.42" height="7.05"/><rect class="cls-1" x="506.88" y="450.42" width="4.42" height="7.05"/><rect class="cls-1" x="575.84" y="367.12" width="4.42" height="7.05"/><rect class="cls-1" x="572.08" y="376.28" width="4.42" height="7.05"/><rect class="cls-1" x="578.89" y="357.96" width="4.42" height="7.05"/><rect class="cls-1" x="567.52" y="385.46" width="4.42" height="7.05"/><rect class="cls-1" x="518.84" y="441.06" width="4.42" height="7.05"/><rect class="cls-1" x="529.76" y="431.73" width="4.42" height="7.05"/><rect class="cls-1" x="539.53" y="422.43" width="4.42" height="7.05"/><rect class="cls-1" x="562.07" y="394.67" width="4.42" height="7.05"/><rect class="cls-1" x="548.15" y="413.15" width="4.42" height="7.05"/><rect class="cls-1" x="555.64" y="403.9" width="4.42" height="7.05"/><rect class="cls-1" x="461.93" y="26.81" width="4.42" height="4.91"/><rect class="cls-1" x="635.5" y="376.08" width="7.05" height="7.05"/><rect class="cls-1" x="633.38" y="385.21" width="7.05" height="7.05"/><rect class="cls-1" x="637.28" y="366.96" width="7.05" height="7.05"/><rect class="cls-1" x="628.1" y="403.49" width="7.05" height="7.05"/><rect class="cls-1" x="630.92" y="394.34" width="7.05" height="7.05"/><rect class="cls-1" x="641.98" y="321.46" width="7.05" height="7.05"/><rect class="cls-1" x="624.97" y="412.64" width="7.05" height="7.05"/><rect class="cls-1" x="638.74" y="357.85" width="7.05" height="7.05"/><rect class="cls-1" x="642.3" y="312.36" width="7.05" height="7.05"/><rect class="cls-1" x="639.91" y="348.75" width="7.05" height="7.05"/><rect class="cls-1" x="640.81" y="339.65" width="7.05" height="7.05"/><rect class="cls-1" x="641.49" y="330.55" width="7.05" height="7.05"/><rect class="cls-1" x="599.38" y="494.93" width="7.05" height="7.05"/><rect class="cls-1" x="613.46" y="113.38" width="7.06" height="7.05"/><rect class="cls-1" x="609.16" y="102.5" width="7.05" height="4.91"/><rect class="cls-1" x="621.57" y="421.8" width="7.05" height="7.05"/><rect class="cls-1" x="617.97" y="430.96" width="7.05" height="7.05"/><rect class="cls-1" x="614.29" y="440.12" width="7.05" height="7.05"/><rect class="cls-1" x="610.65" y="449.28" width="7.05" height="7.05"/><rect class="cls-1" x="604.22" y="467.59" width="7.05" height="7.04"/><rect class="cls-1" x="637.89" y="235.26" width="7.05" height="7.05"/><rect class="cls-1" x="601.28" y="120.08" width="7.05" height="7.05"/><rect class="cls-1" x="607.32" y="134.69" width="7.05" height="7.05"/><rect class="cls-1" x="618.25" y="162.84" width="7.05" height="7.05"/><rect class="cls-1" x="595.06" y="105.31" width="7.05" height="7.05"/><rect class="cls-1" x="613.02" y="148.97" width="7.05" height="7.06"/><rect class="cls-1" x="580.38" y="486.07" width="7.04" height="7.05"/><rect class="cls-1" x="589.62" y="93.39" width="7.05" height="4.91"/><rect class="cls-1" x="622.93" y="176.2" width="7.05" height="7.05"/><rect class="cls-1" x="641.38" y="265.7" width="7.05" height="7.05"/><rect class="cls-1" x="642.46" y="303.22" width="7.05" height="7.05"/><rect class="cls-1" x="641.95" y="275.31" width="7.05" height="7.05"/><rect class="cls-1" x="642.46" y="294.02" width="7.05" height="7.05"/><rect class="cls-1" x="640.55" y="255.85" width="7.05" height="7.05"/><rect class="cls-1" x="642.3" y="284.73" width="7.05" height="7.05"/><rect class="cls-1" x="633.52" y="213.12" width="7.05" height="7.05"/><rect class="cls-1" x="630.56" y="201.33" width="7.05" height="7.05"/><rect class="cls-1" x="627.04" y="189.03" width="7.05" height="7.05"/><rect class="cls-1" x="618.42" y="126.99" width="7.05" height="7.05"/><rect class="cls-1" x="639.4" y="245.73" width="7.05" height="7.05"/><rect class="cls-1" x="635.94" y="224.41" width="7.05" height="7.05"/><rect class="cls-1" x="719.38" y="348.68" width="7.04" height="7.05"/><rect class="cls-1" x="719.49" y="294.21" width="7.04" height="7.05"/><rect class="cls-1" x="719.49" y="285.13" width="7.04" height="7.05"/><rect class="cls-1" x="719.49" y="312.37" width="7.04" height="7.05"/><rect class="cls-1" x="719.49" y="303.29" width="7.04" height="7.05"/><path class="cls-1" d="M675,132.59h7.05v-4.31q-3.42-.19-7.05-.33Z"/><path class="cls-1" d="M713.9,141.82h7v-.9c-2.24-.45-4.57-.89-7-1.27Z"/><path class="cls-1" d="M688.82,136.43h7.06v-3.62c-2.27-.2-4.62-.39-7.06-.54Z"/><path class="cls-1" d="M701.74,139.47h7v-2.53q-3.36-.47-7-.84Z"/><path class="cls-1" d="M721.64,274h4.88V267h-1.61A28.3,28.3,0,0,1,721.64,274Z"/><path class="cls-1" d="M726.5,264.92v-5a47.06,47.06,0,0,1-1,5Z"/><rect class="cls-1" x="719.49" y="321.45" width="7.04" height="7.05"/><path class="cls-1" d="M719.49,276.84v6.26h7v-7.05h-6.37C719.94,276.32,719.71,276.59,719.49,276.84Z"/><rect class="cls-1" x="718.79" y="385" width="7.04" height="7.05"/><rect class="cls-1" x="817.16" y="421.32" width="7.05" height="7.05"/><rect class="cls-1" x="826.88" y="439.47" width="7.05" height="7.05"/><rect class="cls-1" x="767.46" y="385.05" width="7.05" height="7.05"/><rect class="cls-1" x="787.18" y="403.19" width="7.04" height="7.05"/><rect class="cls-1" x="786.69" y="412.28" width="7.04" height="7.05"/><rect class="cls-1" x="788" y="385.01" width="7.04" height="7.05"/><rect class="cls-1" x="856.14" y="484.85" width="7.04" height="7.05"/><rect class="cls-1" x="885.02" y="475.77" width="7.05" height="7.05"/><rect class="cls-1" x="846.44" y="466.69" width="7.05" height="7.04"/><rect class="cls-1" x="846.5" y="448.54" width="7.04" height="7.05"/><rect class="cls-1" x="865.8" y="493.92" width="7.05" height="7.05"/><rect class="cls-1" x="807.74" y="394.08" width="7.04" height="7.05"/><rect class="cls-1" x="807.32" y="412.25" width="7.04" height="7.05"/><rect class="cls-1" x="806.81" y="430.41" width="7.04" height="7.05"/><rect class="cls-1" x="836.56" y="475.78" width="7.05" height="7.05"/><rect class="cls-1" x="798.01" y="375.91" width="7.04" height="7.05"/><rect class="cls-1" x="758.51" y="375.91" width="7.04" height="7.05"/><rect class="cls-1" x="719.47" y="330.52" width="7.04" height="7.05"/><rect class="cls-1" x="717.89" y="412.26" width="7.04" height="7.05"/><rect class="cls-1" x="717.52" y="421.35" width="7.04" height="7.05"/><rect class="cls-1" x="718.23" y="403.18" width="7.04" height="7.05"/><rect class="cls-1" x="589.6" y="458.63" width="7.04" height="7.05"/><rect class="cls-1" x="719.29" y="357.76" width="7.04" height="7.05"/><rect class="cls-1" x="623.29" y="140.52" width="7.06" height="7.05"/><rect class="cls-1" x="719.17" y="366.84" width="7.04" height="7.05"/><rect class="cls-1" x="719" y="375.92" width="7.04" height="7.05"/><path class="cls-1" d="M660.28,127.86h7.05v-4.71c-2.29-.06-4.63-.12-7.05-.15Z"/><rect class="cls-1" x="644.81" y="214.68" width="7.05" height="7.05"/><rect class="cls-1" x="648.43" y="236.14" width="7.05" height="7.05"/><rect class="cls-1" x="649.68" y="246.36" width="7.05" height="7.05"/><rect class="cls-1" x="650.61" y="256.29" width="7.05" height="7.05"/><rect class="cls-1" x="642.35" y="203.35" width="7.05" height="7.05"/><rect class="cls-1" x="632.19" y="166.82" width="7.05" height="7.05"/><rect class="cls-1" x="627.91" y="153.83" width="7.05" height="7.05"/><rect class="cls-1" x="636.04" y="179.42" width="7.05" height="7.05"/><rect class="cls-1" x="613.02" y="312.31" width="7.05" height="7.05"/><rect class="cls-1" x="639.43" y="191.6" width="7.06" height="7.05"/><rect class="cls-1" x="646.82" y="225.59" width="7.06" height="7.05"/><rect class="cls-1" x="650.09" y="348.73" width="7.06" height="7.04"/><rect class="cls-1" x="650.83" y="339.64" width="7.05" height="7.05"/><rect class="cls-1" x="627.43" y="110.44" width="7.05" height="4.91"/><rect class="cls-1" x="651.38" y="330.54" width="7.05" height="7.05"/><path class="cls-1" d="M644.45,117.24v4.91h7v-4.88c-1.34,0-2.64,0-4,0Z"/><rect class="cls-1" x="651.77" y="321.46" width="7.05" height="7.05"/><rect class="cls-1" x="651.75" y="275.49" width="7.05" height="7.05"/><rect class="cls-1" x="652.15" y="294.08" width="7.06" height="7.05"/><rect class="cls-1" x="652.03" y="284.84" width="7.05" height="7.05"/><rect class="cls-1" x="652.02" y="312.37" width="7.05" height="7.05"/><rect class="cls-1" x="652.15" y="303.25" width="7.05" height="7.05"/><rect class="cls-1" x="651.29" y="265.99" width="7.05" height="7.05"/><rect class="cls-1" x="614.01" y="221.89" width="7.06" height="7.05"/><rect class="cls-1" x="616.66" y="233.39" width="7.05" height="7.05"/><rect class="cls-1" x="610.7" y="209.78" width="7.05" height="7.05"/><rect class="cls-1" x="613.26" y="376.15" width="7.05" height="7.06"/><rect class="cls-1" x="620.33" y="254.89" width="7.05" height="7.05"/><rect class="cls-1" x="589.56" y="154.13" width="7.05" height="7.05"/><rect class="cls-1" x="621.49" y="265.04" width="7.05" height="7.05"/><rect class="cls-1" x="582.12" y="138.25" width="7.06" height="7.05"/><rect class="cls-1" x="596.13" y="169.22" width="7.05" height="7.05"/><rect class="cls-1" x="601.82" y="183.5" width="7.05" height="7.05"/><rect class="cls-1" x="606.66" y="197.01" width="7.05" height="7.05"/><rect class="cls-1" x="619.4" y="348.78" width="7.06" height="7.05"/><rect class="cls-1" x="573.86" y="121.62" width="7.05" height="7.05"/><rect class="cls-1" x="620.68" y="339.67" width="7.05" height="7.05"/><rect class="cls-1" x="617.78" y="357.89" width="7.05" height="7.05"/><rect class="cls-1" x="622.3" y="274.88" width="7.05" height="7.05"/><rect class="cls-1" x="615.74" y="367.02" width="7.05" height="7.05"/><rect class="cls-1" x="621.64" y="330.57" width="7.05" height="7.05"/><rect class="cls-1" x="623.03" y="293.88" width="7.06" height="7.05"/><rect class="cls-1" x="622.79" y="284.47" width="7.05" height="7.05"/><rect class="cls-1" x="622.79" y="312.33" width="7.05" height="7.05"/><rect class="cls-1" x="623.03" y="303.15" width="7.05" height="7.05"/><rect class="cls-1" x="622.34" y="321.46" width="7.05" height="7.05"/><rect class="cls-1" x="618.74" y="244.37" width="7.05" height="7.05"/><rect class="cls-1" x="598.67" y="385.34" width="7.06" height="7.05"/><rect class="cls-1" x="604.94" y="367.05" width="7.06" height="7.05"/><rect class="cls-1" x="602.09" y="376.18" width="7.06" height="7.06"/><rect class="cls-1" x="594.65" y="394.52" width="7.06" height="7.05"/><rect class="cls-1" x="607.26" y="357.91" width="7.06" height="7.05"/><rect class="cls-1" x="612.5" y="321.46" width="7.06" height="7.05"/><rect class="cls-1" x="611.69" y="330.57" width="7.06" height="7.05"/><rect class="cls-1" x="584.66" y="412.91" width="7.06" height="7.05"/><rect class="cls-1" x="610.59" y="339.68" width="7.06" height="7.05"/><rect class="cls-1" x="609.13" y="348.79" width="7.06" height="7.05"/><rect class="cls-1" x="539.45" y="477.5" width="7.06" height="7.05"/><rect class="cls-1" x="564.91" y="104.35" width="7.05" height="7.05"/><rect class="cls-1" x="533.83" y="495.79" width="7.06" height="7.05"/><rect class="cls-1" x="593.96" y="449.45" width="7.04" height="7.05"/><rect class="cls-1" x="555.47" y="86.63" width="7.05" height="7.05"/><rect class="cls-1" x="546.98" y="71.93" width="7.05" height="4.91"/><rect class="cls-1" x="565.37" y="440.58" width="7.06" height="7.05"/><rect class="cls-1" x="572.26" y="431.35" width="7.06" height="7.05"/><rect class="cls-1" x="551.31" y="459.07" width="7.05" height="7.05"/><rect class="cls-1" x="627.29" y="234.34" width="7.04" height="7.05"/><rect class="cls-1" x="632.56" y="312.34" width="7.04" height="7.05"/><rect class="cls-1" x="632.17" y="321.46" width="7.04" height="7.05"/><rect class="cls-1" x="632.76" y="293.95" width="7.04" height="7.05"/><rect class="cls-1" x="631.58" y="330.56" width="7.04" height="7.05"/><rect class="cls-1" x="630.45" y="255.38" width="7.04" height="7.05"/><rect class="cls-1" x="630.76" y="339.66" width="7.04" height="7.05"/><rect class="cls-1" x="629.08" y="245.06" width="7.04" height="7.05"/><rect class="cls-1" x="632.13" y="275.1" width="7.04" height="7.05"/><rect class="cls-1" x="631.44" y="265.38" width="7.04" height="7.05"/><rect class="cls-1" x="632.56" y="284.6" width="7.04" height="7.05"/><rect class="cls-1" x="632.75" y="303.19" width="7.04" height="7.05"/><rect class="cls-1" x="607.57" y="421.9" width="7.04" height="7.05"/><rect class="cls-1" x="615.54" y="403.55" width="7.04" height="7.05"/><rect class="cls-1" x="603.14" y="431.08" width="7.04" height="7.05"/><rect class="cls-1" x="629.67" y="348.76" width="7.04" height="7.04"/><rect class="cls-1" x="628.28" y="357.87" width="7.04" height="7.05"/><rect class="cls-1" x="626.54" y="366.99" width="7.04" height="7.05"/><rect class="cls-1" x="618.92" y="394.4" width="7.04" height="7.05"/><rect class="cls-1" x="624.42" y="376.11" width="7.04" height="7.05"/><rect class="cls-1" x="621.88" y="385.25" width="7.04" height="7.05"/><rect class="cls-1" x="576.46" y="449.63" width="7.05" height="7.05"/><rect class="cls-1" x="561.8" y="477.21" width="7.05" height="7.05"/><rect class="cls-1" x="593.25" y="422.01" width="7.05" height="7.05"/><rect class="cls-1" x="602.79" y="403.63" width="7.06" height="7.05"/><rect class="cls-1" x="606.8" y="394.46" width="7.06" height="7.05"/><rect class="cls-1" x="624.99" y="223.16" width="7.04" height="7.05"/><rect class="cls-1" x="609.59" y="172.76" width="7.04" height="7.05"/><rect class="cls-1" x="614.47" y="186.3" width="7.04" height="7.05"/><rect class="cls-1" x="618.64" y="199.19" width="7.04" height="7.05"/><rect class="cls-1" x="622.13" y="211.47" width="7.04" height="7.05"/><rect class="cls-1" x="558.92" y="486.35" width="7.06" height="7.05"/><rect class="cls-1" x="603.99" y="158.56" width="7.04" height="7.05"/><rect class="cls-1" x="597.7" y="143.73" width="7.04" height="7.05"/><rect class="cls-1" x="575.67" y="96.34" width="7.04" height="7.05"/><rect class="cls-1" x="568.84" y="83.16" width="7.04" height="4.91"/><rect class="cls-1" x="583.38" y="112.47" width="7.04" height="7.05"/><rect class="cls-1" x="590.79" y="128.33" width="7.04" height="7.05"/><path class="cls-1" d="M72.4,214h47.07c15.21,0,25.74,4,32.42,10.81,5.83,5.68,8.81,13.36,8.81,23.17v.29c0,15.21-8.1,25.31-20.47,30.57L164,313.57H132.12l-20.05-30.14H100v30.14H72.4Zm45.79,47.78c9.38,0,14.79-4.55,14.79-11.81v-.28c0-7.82-5.69-11.8-14.93-11.8H100v23.89Z"/><path class="cls-1" d="M173.36,269.92V214h28v55.31c0,14.36,7.25,21.19,18.34,21.19s18.34-6.54,18.34-20.48V214h28v55.17c0,32.13-18.35,46.21-46.64,46.21S173.36,301.06,173.36,269.92Z"/><path class="cls-1" d="M281.56,214h29.58v.71l-18.06,50.34H278.43Z"/><path class="cls-1" d="M351.52,276.32,313.7,214h31.42L365.6,250.3,386.21,214h30.86l-37.82,61.85v37.68H351.52Z"/><path class="cls-1" d="M444.37,213.33H471l42.37,100.24H483.76L476.5,295.8H438.11L431,313.57H402Zm24.17,61L457.45,246l-11.23,28.3Z"/></svg>