<?xml version="1.0" encoding="UTF-8"?>
<svg version="1.1" xmlns="http://www.w3.org/2000/svg" width="186" height="137">
<path d="M0 0 C61.38 0 122.76 0 186 0 C186 45.21 186 90.42 186 137 C124.62 137 63.24 137 0 137 C0 91.79 0 46.58 0 0 Z " fill="#FEFDFE" transform="translate(0,0)"/>
<path d="M0 0 C3.47456807 1.65173596 6.05505689 3.80855 8.4375 6.8125 C10.15956754 13.50942932 8.6100051 20.84570329 7.625 27.5625 C7.34580588 29.51164029 7.06716217 31.4608595 6.7890625 33.41015625 C6.58458496 34.83352295 6.58458496 34.83352295 6.37597656 36.28564453 C6.04048805 38.70769731 5.73890441 41.12938096 5.4609375 43.55859375 C5.30882812 44.85925781 5.15671875 46.15992188 5 47.5 C4.814375 49.18609375 4.814375 49.18609375 4.625 50.90625 C3.92813669 54.35572339 2.78084316 56.97256662 1 60 C-1.95664519 61.4783226 -4.74229737 61.06032783 -8 61 C-10.63937349 56.3792886 -11.65508375 52.16885597 -12.1875 46.9375 C-12.26935547 46.24333984 -12.35121094 45.54917969 -12.43554688 44.83398438 C-12.84529367 41.20824177 -13.09244995 37.64821715 -13 34 C-13.66 34 -14.32 34 -15 34 C-15.35029015 34.83777481 -15.35029015 34.83777481 -15.70765686 35.69247437 C-17.32838277 38.58633936 -19.32888074 40.57570598 -21.67749023 42.92041016 C-22.15088837 43.39570663 -22.6242865 43.87100311 -23.11203003 44.36070251 C-24.6727127 45.92507941 -26.24046105 47.48215641 -27.80859375 49.0390625 C-28.89750527 50.12678136 -29.98604678 51.21487075 -31.07423401 52.30331421 C-33.35345629 54.58097397 -35.6359941 56.85523939 -37.92114258 59.12695312 C-40.84953317 62.03834423 -43.77128797 64.95628464 -46.6908102 67.87656593 C-48.93728906 70.12277283 -51.18636513 72.36636364 -53.43632698 74.60908127 C-54.51460543 75.6841789 -55.59228048 76.75988206 -56.66934013 77.83620071 C-58.17476881 79.3394602 -59.68344543 80.83938024 -61.19311523 82.33837891 C-62.05090073 83.1923526 -62.90868622 84.04632629 -63.79246521 84.92617798 C-66.7307828 87.68651849 -68.56400312 88.91586025 -72.5625 89.6875 C-79.77844818 89.4009461 -84.35287689 82.73571915 -89.04248047 77.88916016 C-90.5479507 76.33500966 -92.05739819 74.78470317 -93.57055664 73.23803711 C-95.09742723 71.67234367 -96.61121268 70.09377378 -98.11108398 68.50219727 C-98.81434814 67.77701904 -99.5176123 67.05184082 -100.2421875 66.3046875 C-100.8697998 65.64452637 -101.49741211 64.98436523 -102.14404297 64.30419922 C-103.90216593 62.77732258 -103.90216593 62.77732258 -106.04321289 63.14306641 C-109.36441268 64.59751572 -111.88701613 67.10725827 -114.5625 69.5 C-115.82203503 70.60387135 -117.08246057 71.70672741 -118.34375 72.80859375 C-118.96507812 73.35370605 -119.58640625 73.89881836 -120.2265625 74.46044922 C-122.63003419 76.54694323 -125.08975068 78.55884578 -127.5625 80.5625 C-131.07571946 83.41245679 -134.54706186 86.30285563 -137.98828125 89.23876953 C-146.34621478 96.36462837 -146.34621478 96.36462837 -150.5625 99.6875 C-151.14128906 100.14511719 -151.72007812 100.60273437 -152.31640625 101.07421875 C-154 102 -154 102 -158 102 C-157.61751621 96.89384138 -154.79302404 94.00494733 -151.5 90.375 C-150.39479778 89.12330943 -149.29063959 87.87069629 -148.1875 86.6171875 C-147.36958984 85.69437988 -147.36958984 85.69437988 -146.53515625 84.75292969 C-144.46111631 82.38467161 -142.47705488 79.94951285 -140.5 77.5 C-137.0679185 73.27207351 -133.55445542 69.12475151 -130 65 C-124.13741992 58.19468881 -118.29624008 51.35661143 -112.875 44.19140625 C-112.25625 43.46824219 -111.6375 42.74507812 -111 42 C-110.34 42 -109.68 42 -109 42 C-109 41.34 -109 40.68 -109 40 C-102.26372335 39.15796542 -102.26372335 39.15796542 -99.16210938 41.22460938 C-98.56205078 41.77955078 -97.96199219 42.33449219 -97.34375 42.90625 C-96.65345703 43.54183838 -95.96316406 44.17742676 -95.25195312 44.83227539 C-91.11430147 48.81516882 -87.04073561 52.8564191 -83 56.9375 C-82.12988281 57.81212891 -81.25976562 58.68675781 -80.36328125 59.58789062 C-78.23986451 61.72297449 -76.11883622 63.86037205 -74 66 C-70.59646978 64.52877384 -68.38744251 62.63057487 -65.78222656 60.00927734 C-64.96167786 59.18857758 -64.14112915 58.36787781 -63.29571533 57.52230835 C-62.41953552 56.63580597 -61.54335571 55.74930359 -60.640625 54.8359375 C-59.73624695 53.92872955 -58.8318689 53.02152161 -57.90008545 52.08682251 C-55.50203542 49.68115581 -53.11005382 47.26954264 -50.71929932 44.85662842 C-48.27614829 42.39297656 -45.82728794 39.93501423 -43.37890625 37.4765625 C-38.58066212 32.65626427 -33.78817268 27.83030157 -29 23 C-29.62044189 22.92483154 -30.24088379 22.84966309 -30.88012695 22.7722168 C-33.69274421 22.42389773 -36.50245088 22.05594088 -39.3125 21.6875 C-40.28896484 21.56955078 -41.26542969 21.45160156 -42.27148438 21.33007812 C-43.20927734 21.20439453 -44.14707031 21.07871094 -45.11328125 20.94921875 C-45.97735596 20.83924561 -46.84143066 20.72927246 -47.73168945 20.6159668 C-50.33093486 19.91013361 -51.36534705 19.11372998 -53 17 C-53.39078556 14.27492202 -53.13616953 11.76878044 -53 9 C-48.16927786 6.73038514 -44.10387438 5.51144698 -38.74609375 4.90234375 C-38.08215103 4.82254776 -37.41820831 4.74275177 -36.73414612 4.66053772 C-34.63629557 4.4094877 -32.53721951 4.17236092 -30.4375 3.9375 C-28.33445592 3.69754564 -26.23194247 3.45437526 -24.13014221 3.20375061 C-22.22621352 2.97734411 -20.32101726 2.76167244 -18.41577148 2.54663086 C-1.20658015 -0.20738096 -1.20658015 -0.20738096 0 0 Z " fill="#FD0618" transform="translate(164,20)"/>
<path d="M0 0 C2.64 0 5.28 0 8 0 C8 0.33 8 0.66 8 1 C7.01 1.165 6.02 1.33 5 1.5 C-0.27043944 2.9442513 -3.46390053 7.05059021 -7 11 C-7.66 10.67 -8.32 10.34 -9 10 C-7.88200014 8.66079162 -6.75538103 7.32877444 -5.625 6 C-4.99851562 5.2575 -4.37203125 4.515 -3.7265625 3.75 C-3.15679687 3.1725 -2.58703125 2.595 -2 2 C-1.34 2 -0.68 2 0 2 C0 1.34 0 0.68 0 0 Z " fill="#FD2837" transform="translate(55,60)"/>
</svg>
